<svg width="1440px" height="540px" xmlns="http://www.w3.org/2000/svg" viewBox="0 0 830 470">
<defs></defs
><g id="websites"><path opacity=".61" fill="url(#linear-gradient)" style="isolation:isolate" d="M0 0h830v470H0z"/><path d="M451.92 180.09a23.69 23.69 0 0 1-19.65-10.44l-.77-1.25-.72.34a23.69 23.69 0 0 1-28.86-8.58l-1.14-1.88-4.19-.43a23.69 23.69 0 0 1 4.78-46.85h.4l1-3.35a23.72 23.72 0 0 1 21.83-14.47 23.09 23.09 0 0 1 4.78.49l3.33 1 .37-.8a23.68 23.68 0 0 1 40.73-2.47l2 3.61 1.23-.28a23.73 23.73 0 0 1 25.59 14.6l.58 1.64 4.56.46a23.7 23.7 0 0 1 0 46.42l-3.43.35-.15.33a23.72 23.72 0 0 1-30.45 11.31L472 169l-.41.67a23.67 23.67 0 0 1-19.67 10.42zm137.76 145.2a14.68 14.68 0 0 1-12.18-6.47l-.5-.82-.45.21a14.69 14.69 0 0 1-17.89-5.32l-.71-1.17-2.59-.26a14.68 14.68 0 0 1 3-29.07h.25l.64-2.08a14.7 14.7 0 0 1 13.53-9 14.31 14.31 0 0 1 3 .3l2.07.64.23-.5a14.68 14.68 0 0 1 25.25-1.53l1.22 2.24.76-.18a14.71 14.71 0 0 1 15.86 9.05l.36 1 2.83.28a14.69 14.69 0 0 1 0 28.78l-2.12.22-.09.21a14.7 14.7 0 0 1-18.87 7l-1.11-.53-.25.41a14.67 14.67 0 0 1-12.24 6.59zm36.49-113.89h50.43v1.33h-50.43zm0 6.64h45.12v1.33h-45.12zm0 6.63h29.2V226h-29.2zm0 6.64h17.25v1.33h-17.25zm33.06 17.14h-3.62v-3.61a.85.85 0 1 0-1.69 0v3.61h-3.62a.85.85 0 1 0 0 1.69h3.62v3.62a.85.85 0 1 0 1.69 0v-3.62h3.62a.85.85 0 0 0 0-1.69zm-88-151h-3.62v-3.62a.85.85 0 1 0-1.69 0v3.61h-3.62a.85.85 0 1 0 0 1.69h3.62v3.62a.85.85 0 1 0 1.69 0v-3.61h3.62a.85.85 0 0 0 0-1.69zM320.84 92h-3.62v-3.58a.85.85 0 1 0-1.69 0V92h-3.62a.85.85 0 1 0 0 1.69h3.62v3.62a.85.85 0 1 0 1.69 0v-3.59h3.62a.85.85 0 0 0 0-1.69zM160.92 231.12h-3.62v-3.61a.85.85 0 1 0-1.69 0v3.61H152a.85.85 0 1 0 0 1.69h3.62v3.62a.85.85 0 1 0 1.69 0v-3.62h3.62a.85.85 0 0 0 0-1.69zm469 101h-3.62v-3.62a.85.85 0 1 0-1.69 0v3.61H621a.85.85 0 1 0 0 1.69h3.62v3.62a.85.85 0 1 0 1.69 0v-3.62h3.62a.85.85 0 0 0 0-1.69zM186.57 247.2a6.86 6.86 0 1 1 6.86-6.86 6.86 6.86 0 0 1-6.86 6.86zm0-12.39a5.53 5.53 0 1 0 5.53 5.53 5.54 5.54 0 0 0-5.53-5.53zm447.24 38.25a6.86 6.86 0 1 1 6.86-6.86 6.87 6.87 0 0 1-6.86 6.86zm0-12.39a5.525 5.525 0 1 1 0 .01zm-277.68-155.3a6.86 6.86 0 1 1 6.87-6.86 6.86 6.86 0 0 1-6.87 6.86zm0-12.39a5.53 5.53 0 1 0 5.53 5.53 5.54 5.54 0 0 0-5.53-5.51z" fill="#fff"/><ellipse cx="408.21" cy="384.54" rx="246.85" ry="13.93" fill="#65696d" opacity=".2" style="isolation:isolate"/><path d="M607.28 125.08a8 8 0 0 0-8-8H219.75a8 8 0 0 0-8 8V370.6h395.53z" fill="#6a6b6b"/><path fill="#fff" d="M225.06 146.32h368.95v222.96H225.06z"/><path fill="#e6e6e6" d="M225.06 130.39h368.95v17.25H225.06z"/><circle cx="274.83" cy="138.35" r="3.98" fill="#fff"/><circle cx="261.56" cy="138.35" r="3.98" fill="#fff"/><circle cx="248.29" cy="138.35" r="3.98" fill="#fff"/><path fill="#3fd5ae" d="M225.06 186.46h368.95v182.82H225.06z"/><path fill="#c0c2c2" d="M244.62 160h50v16h-50z"/><path fill="#b3b3b3" d="M495 166h79v4h-79z"/><path fill="#ff6b00" d="M250 296.16h62.26v10.71H250z"/><path fill="#fff" d="M249.62 229.96h138.02v5.31H249.62zm0 27h127.41v5.31H249.62zm0-13.72h103.52v5.31H249.62zm0 26.54h103.52v5.31H249.62z"/><circle cx="612.55" cy="166.87" r="38.49" fill="#66d1ee"/><path d="M628.68 163.11a16 16 0 0 0-32 0c0 7.2 9.51 14 9.51 14a5.74 5.74 0 0 1 2 3.44l.55 4.39a2.55 2.55 0 0 0 2.46 2.17h4.37A2.55 2.55 0 0 0 618 185l.62-4.95a6.4 6.4 0 0 1 1.95-3.57s8.11-6.74 8.11-13.37z" fill="#fff"/><path fill="#6a6b6b" d="M609.02 186.06h8.74v4.37h-8.74z"/><path d="M186.65 90.86v108.56L295.2 90.86zm20 20h40.25l-40.26 40.26z" fill="#ffc700"/><path fill="#fff" d="M190.79 90.86h5v8.859h-5zm8.64 0h5v5.1h-5zm8.64 0h5v8.859h-5zm8.64 0h5v5.1h-5zm8.64 0h5v8.859h-5zm8.64 0h5v5.1h-5zm8.64 0h5v8.859h-5zm8.65 0h5v5.1h-5zm8.63 0h5v8.859h-5zm8.64 0h5v5.1h-5zm8.64 0h5v8.859h-5z"/><circle cx="199.85" cy="294.44" r="38.49" fill="#66d1ee"/><path d="M217 296v-4h-4.17a11.82 11.82 0 0 0-.71-2.69l3.61-2.08-2-3.46-3.6 2.08a13 13 0 0 0-2-2l2.08-3.6-3.46-2-2.08 3.61a12.89 12.89 0 0 0-2.69-.71V277h-4v4.17a12.89 12.89 0 0 0-2.69.72l-2.08-3.61-3.46 2 2.08 3.6a13 13 0 0 0-2 2l-3.6-2.08-2 3.46 3.61 2.08a12.92 12.92 0 0 0-.71 2.69H183v4h4.17a12.871 12.871 0 0 0 .71 2.68l-3.61 2.08 2 3.46 3.6-2.08a13 13 0 0 0 2 2l-2.08 3.6 3.46 2 2.08-3.61a12.86 12.86 0 0 0 2.69.71V311h4v-4.17a12.889 12.889 0 0 0 2.68-.71l2.08 3.61 3.46-2-2.08-3.6a13 13 0 0 0 2-2l3.6 2.08 2-3.46-3.61-2.08a12.86 12.86 0 0 0 .71-2.69z" fill="#f2f2f2"/><circle cx="200" cy="294" r="9" fill="#ff6b00"/><circle cx="200" cy="294" r="3" fill="#f2f2f2"/><path fill="#375d94" d="M378.57 304.284h18.88v-2.36h-21.24v44.75h2.36v-42.39zm171.12 8.616l-2.05-79.29h-6.59l-4.56-44.15-4.85 44.15h-5.76l.68 41-4.13 50 2.34.23.46-5.56h10v-2.36h-9.83l.38-4.14h21.55v.18zm-3.34-38.35l.09 3.39h-17.8l.26-3.12.01-.09.08-.92h17.26zm-17.18-3.09l.34-4.13h15.85l.54 4.13zm16.18-35.45l.41 16-2.11-16zm-8.93-24.34l2.22 20.9h-4.49zm-4.22 23.25h8.93l.53 4.05h-9.79zm-1.08 12.92h11.22v-2.36l-11.01-.01.34-4.13h10.3l1.4 10.63h-12.59zm-.6 6.49h13.12l.54 4.13h-14zm13.98 6.5l.54 4.13h-15.33l.34-4.13zm-14.78-24.82l-1.23 14.88-.25-14.88zm-1.28 44.32h18.05l.11 4.13h-18.5zm-.54 6.5h18.76l.11 4.13h-19.21zm-.53 6.5h19.46l.11 4.13h-19.91zm-.54 6.5H547l.11 4.13h-20.62zm-.87 10.59l.34-4.13h20.89l.11 4.13zm-6.66 41.954l-.52 6.03h-.09l-1.16 11.73h12.85v-2.36h-10.25l.7-7.01h9.84v-2.36h-.44v-.01h-9.08l.51-5.82-2.36-.2zm70.77-67.8h-28v3h-3.95v25.06h2.36v-22.7h31.16v77.82H578.5v2.35h15.51v-82.52h-3.94zm-2.36 3h-23.24v-.67h23.24z"/><path d="M533.64 331.794l-.89-.23a30.93 30.93 0 0 1-11-5.15c-1.46-1.1-2.83-2.24-4.1-3.39v-.22h-.24a65.431 65.431 0 0 1-12.38-15.47v-.86h-3.16v2.34c-3.39 4.66-10.15 12.65-16.55 17.63l-.09.07a14.129 14.129 0 0 1-4.6 2.73l.87 2.2c.8-.34 1.41-.57 1.94-.83v13h-1.8v2.36h19.2v2.13h-19.32v2.36h20.36V370.1h4.83l-.52-19.71h27.45zM489.83 343.6h-4v-14.5l.89-.69.11-.09c1-.79 2-1.63 3-2.51zm6.06 0h-3.69v-20c1.23-1.23 2.44-2.5 3.64-3.77h.05zm6 0h-3.68v-26.38c1.4-1.62 2.66-3.15 3.71-4.49zm21.85-13.08a34.162 34.162 0 0 0 7.55 3.12l-.04 9.96h-7.51zm-6.1-4.33c.9.72 1.8 1.44 2.73 2.14h-.04c.33.25.67.48 1 .72v14.55h-3.69zm-6.31-6.19q1.815 2.01 3.99 4.1l.01-.02v19.52h-4zm-5.35 23.6l-.79-31.5c.98 1.43 2.24 3.2 3.79 5.12v26.38zm25.27 4.46h-24.07l-.06-2.1h24.17z" fill="#375d94"/><path d="M537.53 322.624h-5.19v7.74h2.36v-5.38h39.69v42.79H534.7v-16.45h-2.36V370.1h44.41v-47.48h-6.57v-8.73h-32.65zm2.36-6.36h27.93v5.3h-27.93zm-113.03 30.63h2.36v-64h2.73v-17.94h7.37V260.7h1.59v21.4h-5v85.15h-1.3v2.36h19.34v-2.36h-8.41v-82.78h7v3.23h2.36v-5.6h-5.45v-21.4h1.59v4.26h7.37v17.64h2.36v.71h2.36v-3.07h-2.36v-17.65h-7.37v-4.26h-2l-1.85-17.43-2.36.12v17.3h-.12v3.82h-3.78v-3.82h-.08v-17.3l-2.36-.12-1.85 17.434h-2v4.26h-7.37v17.93h-2.73zm20.19-82.37V282.1h-3.78v-17.58zm-3.91 20v82.79h-4.9v-82.84h4.9z" fill="#375d94"/><path d="M432.87 347.884h-76.54v22h76.54zm-2.36 19.69H358.7v-17.33h71.82zm27.23-83.25v5.07h-2V370.1h23.7v-80.71h-2.39v-5.07zm2.36 2.36h14.59v1.63H460.1zm17 81.09h-19v-76h19zm-96.4-61.85h3.6v2.36h-3.6zm5.84 0h3.6v2.36h-3.6zm5.84 0h3.6v2.36h-3.6zm-11.68 4.21h3.6v2.36h-3.6zm5.84 0h3.6v2.36h-3.6zm5.84 0h3.6v2.36h-3.6zm-11.68 4.21h3.6v2.36h-3.6zm5.84 0h3.6v2.36h-3.6zm5.84 0h3.6v2.36h-3.6zm-11.68 4.21h3.6v2.36h-3.6zm5.84 0h3.6v2.36h-3.6zm5.84 0h3.6v2.36h-3.6zm-11.68 4.2h3.6v2.36h-3.6zm5.84 0h3.6v2.36h-3.6zm5.84 0h3.6v2.36h-3.6zm-11.68 4.21h3.6v2.36h-3.6zm5.84 0h3.6v2.36h-3.6zm5.84 0h3.6v2.36h-3.6zm-11.68 4.21h3.6v2.36h-3.6zm5.84 0h3.6v2.36h-3.6zm5.84 0h3.6v2.36h-3.6zm-11.68 4.2h3.6v2.36h-3.6zm5.84 0h3.6v2.36h-3.6zm5.84 0h3.6v2.36h-3.6zm-11.68 4.21h3.6v2.36h-3.6zm5.84 0h3.6v2.36h-3.6zm5.84 0h3.6v2.36h-3.6zm-11.68 4.21h3.6v2.36h-3.6zm5.84 0h3.6v2.36h-3.6zm5.84 0h3.6v2.36h-3.6z" fill="#375d94"/><path fill="#375d94" d="M362.02 352.914h64.73v2.36h-64.73zm0 4.79h64.73v2.36h-64.73zm0 4.8h64.73v2.36h-64.73zm62.62-87.07v-3.5h-4.51v-5.66h-14.49v5.66h-4.08v3.5h-3.29V346h2.37v-68.2h24.8v.3h2.36v-2.67zm-16.63-6.79h9.8v2.25h-9.8zm14.31 6.8h-18.41l.02-1.14h18.39z"/><path fill="#375d94" d="M413.17 279.724h2.36v66.72h-2.36zm-10.03.59h7.68v2.36h-7.68zm0 4.61h7.68v2.36h-7.68zm0 4.61h7.68v2.36h-7.68zm0 4.6h7.68v2.36h-7.68zm0 4.61h7.68v2.36h-7.68zm0 4.61h7.68v2.36h-7.68zm0 4.61h7.68v2.36h-7.68zm0 4.61h7.68v2.36h-7.68zm0 4.6h7.68v2.36h-7.68zm0 4.61h7.68v2.36h-7.68zm0 4.61h7.68v2.36h-7.68zm0 4.61h7.68v2.36h-7.68zm0 4.61h7.68v2.36h-7.68zm0 4.6h7.68v2.36h-7.68zm14.9-59.9h7.68v2.36h-7.68zm0 4.61h7.68v2.36h-7.68zm0 4.61h7.68v2.36h-7.68zm0 4.6h7.68v2.36h-7.68zm0 4.61h7.68v2.36h-7.68zm0 4.61h7.68v2.36h-7.68zm0 4.61h7.68v2.36h-7.68zm0 4.61h7.68v2.36h-7.68zm0 4.6h7.68v2.36h-7.68zm0 4.61h7.68v2.36h-7.68zm0 4.61h7.68v2.36h-7.68zm0 4.61h7.68v2.36h-7.68zm0 4.61h7.68v2.36h-7.68zm0 4.6h7.68v2.36h-7.68zm21.85-54.14h1.77v2.36h-1.77zm6.5 0h5.46v2.36h-5.46zm-6.5 3.69h1.77v2.36h-1.77zm6.5 0h5.46v2.36h-5.46zm-6.5 3.69h1.77v2.36h-1.77zm6.5 0h5.46v2.36h-5.46zm-6.5 3.69h1.77v2.36h-1.77zm6.5 0h5.46v2.36h-5.46zm-6.5 3.69h1.77v2.36h-1.77zm6.5 0h5.46v2.36h-5.46zm-6.5 3.69h1.77v2.36h-1.77zm6.5 0h5.46v2.36h-5.46zm-6.5 3.69h1.77v2.36h-1.77zm6.5 0h5.46v2.36h-5.46zm-6.5 3.69h1.77v2.36h-1.77zm6.5 0h5.46v2.36h-5.46zm-6.5 3.69h1.77v2.36h-1.77zm6.5 0h5.46v2.36h-5.46zm-6.5 3.69h1.77v2.36h-1.77zm6.5 0h5.46v2.36h-5.46zm-6.5 3.69h1.77v2.36h-1.77zm6.5 0h5.46v2.36h-5.46zm-6.5 3.69h1.77v2.36h-1.77zm6.5 0h5.46v2.36h-5.46zm-6.5 3.7h1.77v2.36h-1.77zm6.5 0h5.46v2.36h-5.46zm-6.5 3.69h1.77v2.36h-1.77zm6.5 0h5.46v2.36h-5.46zm-6.5 3.69h1.77v2.36h-1.77zm6.5 0h5.46v2.36h-5.46zm-6.5 3.69h1.77v2.36h-1.77zm6.5 0h5.46v2.36h-5.46zm-6.5 3.69h1.77v2.36h-1.77zm6.5 0h5.46v2.36h-5.46zm-6.5 3.69h1.77v2.36h-1.77zm6.5 0h5.46v2.36h-5.46zm-6.5 3.69h1.77v2.36h-1.77zm6.5 0h5.46v2.36h-5.46zm-6.5 3.69h1.77v2.36h-1.77zm6.5 0h5.46v2.36h-5.46zm-6.5 3.69h1.77v2.36h-1.77zm6.5 0h5.46v2.36h-5.46zm-6.5 3.69h1.77v2.36h-1.77zm6.5 0h5.46v2.36h-5.46zm13.43-70.71h6.73v2.36h-6.73zm8.92 0h6.73v2.36h-6.73zm-8.92 3.4h6.73v2.36h-6.73zm8.92 0h6.73v2.36h-6.73zm-8.92 3.39h6.73v2.36h-6.73zm8.92 0h6.73v2.36h-6.73zm-8.92 3.4h6.73v2.36h-6.73zm8.92 0h6.73v2.36h-6.73zm-8.92 3.39h6.73v2.36h-6.73zm8.92 0h6.73v2.36h-6.73zm-8.92 3.4h6.73v2.36h-6.73zm8.92 0h6.73v2.36h-6.73zm-8.92 3.39h6.73v2.36h-6.73zm8.92 0h6.73v2.36h-6.73zm-8.92 3.4h6.73v2.36h-6.73zm8.92 0h6.73v2.36h-6.73zm-8.92 3.39h6.73v2.36h-6.73zm8.92 0h6.73v2.36h-6.73zm-8.92 3.4h6.73v2.36h-6.73zm8.92 0h6.73v2.36h-6.73zm-8.92 3.39h6.73v2.36h-6.73zm8.92 0h6.73v2.36h-6.73zm-8.92 3.4h6.73v2.36h-6.73zm8.92 0h6.73v2.36h-6.73zm-8.92 3.39h6.73v2.36h-6.73zm8.92 0h6.73v2.36h-6.73zm-8.92 3.4h6.73v2.36h-6.73zm8.92 0h6.73v2.36h-6.73zm-8.92 3.39h6.73v2.36h-6.73zm8.92 0h6.73v2.36h-6.73zm-8.92 3.4h6.73v2.36h-6.73zm8.92 0h6.73v2.36h-6.73zm-8.92 3.39h6.73v2.36h-6.73zm8.92 0h6.73v2.36h-6.73zm-8.92 3.4h6.73v2.36h-6.73zm8.92 0h6.73v2.36h-6.73zm-8.92 3.39h6.73v2.36h-6.73zm8.92 0h6.73v2.36h-6.73zm-8.92 3.4h6.73v2.36h-6.73zm8.92 0h6.73v2.36h-6.73zm-8.92 3.39h6.73v2.36h-6.73zm8.92 0h6.73v2.36h-6.73zm-7.33 3.4h5.37v2.36h-5.37zm7.1 0h5.37v2.36h-5.37zm68.51-37.2h7.82v2.36h-7.82zm0 3.84h7.82v2.36h-7.82zm0 3.84h7.82v2.36h-7.82zm0 3.83h7.82v2.36h-7.82zm0 3.84h7.82v2.36h-7.82zm0 3.84h7.82v2.36h-7.82zm0 3.84h7.82v2.36h-7.82zm0 3.84h7.82v2.36h-7.82zm0 3.83h7.82v2.36h-7.82zm0 3.84h7.82v2.36h-7.82zm13.44-34.54h7.82v2.36h-7.82zm0 3.84h7.82v2.36h-7.82zm0 3.84h7.82v2.36h-7.82zm0 3.83h7.82v2.36h-7.82zm0 3.84h7.82v2.36h-7.82zm0 3.84h7.82v2.36h-7.82zm0 3.84h7.82v2.36h-7.82zm0 3.84h7.82v2.36h-7.82zm0 3.83h7.82v2.36h-7.82zm0 3.84h7.82v2.36h-7.82zm13.43-34.54h7.82v2.36h-7.82zm0 3.84h7.82v2.36h-7.82zm0 3.84h7.82v2.36h-7.82zm0 3.83h7.82v2.36h-7.82zm0 3.84h7.82v2.36h-7.82zm0 3.84h7.82v2.36h-7.82zm0 3.84h7.82v2.36h-7.82zm0 3.84h7.82v2.36h-7.82zm0 3.83h7.82v2.36h-7.82zm0 3.84h7.82v2.36h-7.82zm-.59-69.08h5.76v2.36h-5.76zm0 3.54h5.76v2.36h-5.76zm0 3.54h5.76v2.36h-5.76zm0 3.55h5.76v2.36h-5.76zm0 3.54h5.76v2.36h-5.76zm0 3.54h5.76v2.36h-5.76zm8.71-17.86h16.53v2.36h-16.53zm0 3.25h16.53v2.36h-16.53zm0 3.25h16.53v2.36h-16.53zm0 3.24h16.53v2.36h-16.53zm0 3.25h16.53v2.36h-16.53zm0 3.25h16.53v2.36h-16.53zm0 3.25h16.53v2.36h-16.53zm0 3.24h16.53v2.36h-16.53zm0 3.25h16.53v2.36h-16.53zm6.49 3.25h10.04v2.36H578.5zm0 3.25h10.04v2.36H578.5zm0 3.24h10.04v2.36H578.5zm0 3.25h10.04v2.36H578.5zm0 3.25h10.04v2.36H578.5zm0 3.25h10.04v2.36H578.5zm0 3.24h10.04v2.36H578.5zm0 3.25h10.04v2.36H578.5zm0 3.25h10.04v2.36H578.5zm0 3.25h10.04v2.36H578.5zm0 3.24h10.04v2.36H578.5zm0 3.25h10.04v2.36H578.5zm0 3.25h10.04v2.36H578.5zm0 3.25h10.04v2.36H578.5z"/><path d="M182.69 378.57c.6 2.32 1.56 4.54 2.9 5.31h447.9c1.33-.77 2.28-3 2.88-5.31z" fill="#e6e6e6"/><path d="M636.47 373.26v-4h-455.2v4c0 1.28.92 3.33 1.44 5.31h453.67c.51-1.98.09-4.03.09-5.31z" fill="#666"/><path fill="#d9dada" d="M396.26 371.93h26.54v3.98h-26.54z"/></g></svg>